<svg height="21" viewBox="0 0 23 21" width="23" xmlns="http://www.w3.org/2000/svg"><path d="m20.8552464 20.3456835c-.0526645.2460934-.1645776.4374995-.3357378.5742178-.1711603.1367184-.3620705.2050778-.5727293.2050778h-11.57308187l.23699144 1.312498h10.62511603c.289656 0 .5266475.1230466.7109744.36914.1843268.2460933.2501574.5195306.1974928.8203112l-.2369914 1.025389c.3949857.1914061.704391.4716789.9282164.840819.2238255.36914.3357379.7724595.3357379 1.209959 0 .628905-.2172421 1.1689434-.6517264 1.6201146-.4344843.4511711-.9545491.6767567-1.5601937.6767567-.6056445 0-1.1257093-.2255856-1.5601936-.6767567-.4344843-.4511712-.6517264-.9980451-.6517264-1.6406224s.2238254-1.1826151.6714757-1.6201146h-8.29470029c.44765029.4374995.67147574.9775373.67147574 1.6201146s-.21724215 1.1894512-.65172645 1.6406224c-.4344843.4511711-.95454904.6767567-1.56019362.6767567-.60564459 0-1.12570933-.2255856-1.56019363-.6767567-.4344843-.4511712-.65172645-.9912096-.65172645-1.6201146 0-.4101556.09874643-.7929673.2962393-1.1484357.19749286-.3554684.46739957-.6425773.80972074-.8613268l-2.7649001-14.068337h-2.76490009c-.26332402 0-.48714887-.0957027-.67147574-.2871089-.18432687-.1914061-.27649001-.42382723-.27649001-.69726451v-.65624895c0-.27343728.09216314-.50585837.27649001-.69726452.18432687-.19140616.40815172-.28710892.67147574-.28710892h4.06835299c.21065886 0 .40156903.07519498.57272931.22558558.17116028.15039059.28307331.33496061.33573787.55371006l.35548715 1.84570016h15.52293913c.3159886 0 .566146.1230467.7504729.3691401.1843268.2460933.2369914.5195306.1579943.8203112z" fill="#2d394a" fill-rule="evenodd" transform="translate(0 -8)"/></svg>