<svg height="55" viewBox="0 0 20 55" width="20" xmlns="http://www.w3.org/2000/svg" xmlns:xlink="http://www.w3.org/1999/xlink"><mask id="a" fill="#fff"><path d="m0 55h19.6722222v-55h-19.6722222z" fill="#fff" fill-rule="evenodd"/></mask><g fill="#fff" fill-rule="evenodd"><path d="m9.51166667 41.16948h.64777773l1.11-5.1502v-7.6626h-2.86777773v7.6626zm1.13777773 1.2012h-1.62777773c-.28666667 0-.53333334-.1991-.59444445-.4752l-1.22444444-5.687c-.00888889-.0407-.01333334-.0836-.01333334-.1254v-8.327c0-.3322.27111112-.6006.60666667-.6006h4.07999999c.3355556 0 .6066667.2684.6066667.6006v8.327c0 .0418-.0055556.0847-.0133334.1254l-1.2255555 5.687c-.0611111.2761-.3077778.4752-.5944445.4752z"/><path d="m4.81777778 3.8346h10.03555552v-2.6345h-10.03555552zm10.64222222 1.2001h-11.24777778c-.33555555 0-.60666666-.2684-.60666666-.6006v-3.8335c0-.3322.27111111-.6006.60666666-.6006h11.24777778c.3355556 0 .6066667.2684.6066667.6006v3.8335c0 .3322-.2711111.6006-.6066667.6006z" mask="url(#a)"/><path d="m11.2695556 4.22059v22.935h-2.86777782v-22.935h-1.21222222v23.5356c0 .3311.27111111.5995.60666666.5995h4.07999998c.3355556 0 .6066667-.2684.6066667-.5995v-23.5356z" mask="url(#a)"/><path d="m9.73755556 53.79858h.23666666c.76555558-.2574 6.12888888-2.7071 8.46333338-6.5571.0044444-.0088.0111111-.0176.0166666-.0275.0044445-.0528.0044445-.1408.0044445-.2024v-15.2636c0-.2079-.1622223-.3674-.3711111-.3674-.0366667 0-.0733334-.0033-.1077778-.0099-.0344445.0066-.0722222.0099-.1088889.0099h-16.28777779c-.20888889 0-.37.1595-.37.3674v15.2636c0 .1804 0 .1804.04444445.2695 2.36444444 3.8005 7.77 6.2161 8.48 6.5175m.31555554 1.2012h-.43555554c-.06444445 0-.13-.011-.19-.0297-.79555556-.264-6.65-2.9579-9.22888889-7.106-.19888889-.3883-.19888889-.6039-.19888889-.8525v-15.2636c0-.8657.71111111-1.5686 1.58333333-1.5686h16.28777779c.0366667 0 .0744444.0033.1088889.0099.0344444-.0066.0711111-.0099.1077778-.0099.8744444 0 1.5833333.7029 1.5833333 1.5686v15.2636c0 .264 0 .6149-.2211111.891-2.7422222 4.4726-8.9344445 7.0972-9.3966667 7.0972" mask="url(#a)"/></g></svg>