<svg height="18" viewBox="0 0 18 18" width="18" xmlns="http://www.w3.org/2000/svg"><path d="m17.1562091 11.4687346c.1874994.7265609.2812493 1.476559.2812493 2.2499946 0 .7734357-.0937499 1.5234337-.2812493 2.2499946h-4.6406139c.1874993-1.4999966.1874993-2.9999926 0-4.4999892zm-10.93356769 5.6249866h4.99217559c-.210937 1.0312473-.5039049 1.9804638-.8789041 2.8476494-.44531166 1.0078103-.97265415 1.8398392-1.58202752 2.4960878h-.07031233c-.60937337-.6562486-1.13671586-1.4882775-1.58202748-2.4960878-.37499929-.8671856-.66796716-1.8164021-.87890416-2.8476494zm6.11717289-6.7499839c-.3749993-2.0624953-1.054685-3.79686599-2.0390576-5.20311264 1.4531213.25781171 2.7538995.85546654 3.9023344 1.79296448 1.148435.93749794 2.0039015 2.0742138 2.5664002 3.41014816zm-.9492165 1.1249973c.1874994 1.4999966.1874994 2.9999926 0 4.4999892h-5.34373722c-.18749937-1.4999966-.18749937-2.9999926 0-4.4999892zm-6.2929537 5.6249866c.37499928 2.0624952 1.05468498 3.7968659 2.03905763 5.2031126-1.45312135-.2578117-2.7538995-.8554666-3.90233444-1.7929645-1.14843494-.937498-2.00390147-2.0742138-2.56640013-3.4101481zm7.2421702 0h4.429677c-.5624987 1.3359343-1.4179652 2.4726501-2.5664002 3.4101481-1.1484349.9374979-2.4492131 1.5351528-3.9023344 1.7929645.9843726-1.4062467 1.6640583-3.1406174 2.0390576-5.2031126zm-1.1249973-6.7499839h-4.99217559c.210937-1.0312474.50390487-1.98046389.87890416-2.8476495.44531162-1.00781028.97265411-1.83983919 1.58202748-2.4960878h.07031233c.60937337.65624861 1.13671586 1.48827752 1.58202752 2.4960878.3749992.86718561.6679671 1.8164021.8789041 2.8476495zm-10.93356767 1.1249973h4.64061394c-.18749938 1.4999966-.18749938 2.9999926 0 4.4999892h-4.64061394c-.18749937-.7265609-.28124933-1.4765589-.28124933-2.2499946 0-.7734356.09374996-1.5234337.28124933-2.2499946zm4.81639477-1.1249973h-4.42967694c.56249866-1.33593436 1.41796519-2.47265022 2.56640013-3.41014816s2.44921309-1.53515277 3.90233444-1.79296448c-.98437265 1.40624665-1.66405835 3.14061734-2.03905763 5.20311264z" fill="#dc3545" fill-rule="evenodd" transform="translate(0 -5)"/></svg>