<svg xmlns="http://www.w3.org/2000/svg" height="36" viewBox="0 0 135 36" width="135"><g fill-rule="evenodd"><path d="m95.115154 13.18488-2.4064955 7.7352-2.3841964-7.7352h-1.3385492l-2.379375 7.683-2.3902232-7.683h-1.638683l3.2092634 10.3164-.015067.0498h1.6700223l-.0156696-.0498 2.2232813-7.1472 2.2389508 7.197h1.6404911l3.2249331-10.3662z"/><path d="m126.003033 16.92228c1.181853 0 2.180492.7962 2.484242 1.8774h-4.968483c.30375-1.0812 1.302389-1.8774 2.484241-1.8774zm3.976474 3.3192c.045803-.2436.071116-.4944.071116-.7506 0-2.226-1.812255-4.0302-4.04759-4.0302-2.235334 0-4.047589 1.8042-4.047589 4.0302 0 2.2254 1.812255 4.0296 4.047589 4.0296 1.328304 0 2.506541-.6378 3.244219-1.6224l-1.191495-.8562c-.471295.6174-1.215603 1.017-2.052724 1.017-1.163169 0-2.147946-.7698-2.469174-1.8246z"/><path d="m106.3574 23.5437v-4.3944c0-1.1736.958861-2.1294 2.1377-2.1294 1.178237 0 2.137099.9558 2.137099 2.1294v4.3944h1.563951v-4.3944c0-2.0364-1.657367-3.6876-3.70105-3.6876-2.044888 0-3.701651 1.6512-3.701651 3.6876v4.3944z"/><path d="m99.8951183 21.99912c-1.3885714 0-2.5173884-1.125-2.5173884-2.5086 0-1.3824 1.128817-2.5074 2.5173884-2.5074 1.3879687 0 2.5179907 1.125 2.5179907 2.5074 0 1.3836-1.130022 2.5086-2.5179907 2.5086m0-6.5376c-2.2341295 0-4.0445759 1.8042-4.0445759 4.029 0 2.226 1.8104464 4.0302 4.0445759 4.0302 2.2341297 0 4.0445757-1.8042 4.0445757-4.0302 0-2.2248-1.810446-4.029-4.0445757-4.029"/><path d="m117.07646 21.99912c-1.387969 0-2.517389-1.125-2.517389-2.5086 0-1.383 1.12942-2.5074 2.517389-2.5074 1.389174 0 2.517991 1.1244 2.517991 2.5074 0 1.3836-1.128817 2.5086-2.517991 2.5086m4.043973-8.814h-1.563951v3.1284c-.685848-.531-1.544062-.852-2.480022-.852-2.233527 0-4.045179 1.8036-4.045179 4.029 0 2.226 1.811652 4.0296 4.045179 4.0296 2.234129 0 4.045178-1.8036 4.045178-4.0296 0-.009-.001205-6.3054-.001205-6.3054"/><path d="m67.1506272 19.7559c-1.3879687 0-2.5167857-1.125-2.5167857-2.5086 0-1.3824 1.128817-2.5074 2.5167857-2.5074 1.3885715 0 2.5179911 1.125 2.5179911 2.5074 0 1.3836-1.1294196 2.5086-2.5179911 2.5086m0-6.5376c-2.2335268 0-4.0445759 1.8036-4.0445759 4.029 0 2.226 1.8110491 4.0296 4.0445759 4.0296.1392188 0 .2766295-.0066.4122322-.0204l-1.4446206 2.2794h1.805625c.8961831-1.4052 2.7777456-4.356 2.7777456-4.356h-.0006027c.3145982-.5736.4947991-1.2318.4947991-1.9326 0-2.2254-1.8104464-4.029-4.0451786-4.029"/><path d="m79.6888728 15.46182c-.7967411 0-1.5302009.2562-2.1340849.6822v-2.9592h-1.5597321l-.0084375 10.359h1.5645536l.003616-4.4298c.0198884-1.1574.9672992-2.094 2.1340849-2.094 1.1782366 0 2.1370982.9552 2.1370982 2.1294v4.3944h1.5645536v-4.3944c0-2.037-1.6573661-3.6876-3.7016518-3.6876"/><path d="m75.0873013 15.55266h-1.4777678l-.0006027-2.3676h-1.5597321v7.3974c.0024107 1.6356 1.334933 2.961 2.9784375 2.961.018683 0 .0361607-.0024.054241-.0024v-1.5558c-.0180803.0006-.035558.003-.054241.003-.7792634 0-1.4132813-.63-1.415692-1.4058l-.0012054-3.5268h1.4765625z"/><path d="m134.591806 15.45276c-2.046697 0-3.705268 1.6518-3.705268 3.6894v4.3962h1.565759v-4.3962c0-1.1748.959464-2.13 2.139509-2.13z"/><path d="m60.5205603 3.37512c-2.8566965 2.331-4.4911607 5.7618-4.4911607 9.438l-.0006027 10.7496c0 2.7618-2.4818304 4.9572-5.3403348 4.4886-2.2214733-.3642-3.7974777-2.367-3.7974777-4.608v-10.4172c0-5.2734 3.9885268-9.8154 9.267991-10.2468 1.4964509-.1224 2.968192.0804 4.3615849.5958zm-6.6445313 26.4234c-1.9135044 2.4276-4.8630134 3.867-7.9595759 3.867-5.5765848 0-10.1135491-4.5162-10.1135491-10.068l-.0102455-10.8486c0-2.4966 2.009933-4.5276 4.4815178-4.5276 2.3028349 0 4.21875 1.7436 4.4568081 4.0524.0072321.1464.0132589 7.4448.0150669 11.289 0 3.687 3.0121875 6.687 6.7132366 6.687.8298884 0 1.6404911-.1518 2.4167411-.4512zm-29.3564732-6.2412-.0006027-10.7442c0-5.5518 4.5369643-10.0686 10.1129465-10.0686 3.0772767 0 5.9213169 1.3566 7.8547098 3.7344-.7117634-.2538-1.4542634-.3834-2.2124331-.3834-3.6480134 0-6.6156026 2.9844-6.6156026 6.6534l-.0018081 10.8138c0 2.5098-2.0491071 4.5516-4.5683035 4.5516-2.5191965 0-4.569509-2.0406-4.5689063-4.557zm-12.2060491 4.9248c.0030134.0072.0054241.015.0054241.015.7702232 1.7448 1.9629241 3.3036 3.4587723 4.527-1.1215848.4152-2.2980134.6252-3.4991518.6252-1.385558 0-2.73736603-.2838-4.02287943-.8424 1.72848215-1.0332 3.12549103-2.5224 4.05783483-4.3248zm-10.26241072-15.6936.09522322-.033c.01325893-2.4948 2.06236607-4.5246 4.56770089-4.5246 2.51919643 0 4.56890621 2.0406 4.56890621 4.5492l.0036161 10.0434c-5.10770088-.4884-9.10044642-4.827-9.14203124-9.9402l.00120536-.0948zm11.37616072-.0552c-.0253125-3.6648-3.0272545-6.6378-6.71323661-6.6378-.80879464 0-1.59830357.1428-2.35225446.4254 1.91410714-2.3766 4.83890624-3.7854 7.89629467-3.7854 5.5765848 0 10.1135491 4.5162 10.1135491 10.068v.1752c.0006027 1.0962.0030134 7.0518.0030134 10.5786v.0054c0 3.0198 2.0147544 5.7222 4.9552232 6.4638 1.4397991.3636 2.8572991.2802 4.1729464-.228-1.9141071 2.4276-4.8630134 3.867-7.9583705 3.867-5.5765848 0-10.1135491-4.5162-10.1135491-10.068v-10.794zm51.2150223-9.4614c-.6081027-.4836-1.265625-.9114-1.9526786-1.2696-1.7706696-.9246-3.6835714-1.3926-5.6856696-1.3926-4.841317 0-9.2077232 2.8212-11.186317 7.2072-1.9767857-4.386-6.3431919-7.2072-11.1857142-7.2072-4.8401117 0-9.2065179 2.8212-11.184509 7.206-1.9755803-4.3908-6.3437946-7.2156-11.1893303-7.2156-6.731317 0-12.23015628 5.4522-12.25727682 12.159l-.00060268.0396c0 6.324 4.93111607 11.6466 11.2459821 12.1614-.4767187 2.9166-2.47037942 5.4276-5.22401781 6.5694-.72261161.3006-1.4934375.4998-2.29258929.5946l-.19647321.0228.14102678.138c.59966518.588 1.28189733 1.1268 2.02620536 1.599 1.974375 1.254 4.24828125 1.917 6.57823657 1.917 1.9731697 0 3.8667858-.4632 5.6290179-1.3752l.1157143.0696c1.72125.8664 3.5787053 1.3056 5.5211384 1.3056 4.8413169 0 9.2083259-2.8224 11.1857143-7.2084 2.2160491 4.9158 7.4340401 7.8672 12.9581919 7.083 6.0695759-.8628 10.4854018-6.2052 10.4854018-12.3096v-10.5528c0-3.3732 1.6917188-6.5082 4.5249107-8.385.5966518-.3966 1.2427232-.7308 1.9195313-.9948l.1524777-.0594z"/></g></svg>